# xmcd
#
# Track frame offsets:
#	150
#	20219
#	33538
#	50630
#	79003
#	98677
#	119444
#	137939
#	156646
#	175000
#
# Disc length: 2581 seconds
# Revision: 0
# Processed by: cddbd v1.5.2PL0 Copyright (c) Steve Scherf et al.
# Submitted via: dBpowerAMP V12.0
#
DISCID=8a0a130a
DTITLE=Steve Howell and the Mighty Men - Yes, I Believe I Will
DYEAR=2013
DGENRE=Folk
TTITLE0=I Had a Notion
TTITLE1=Walk on Boy
TTITLE2=Keep Your Lamps Trimmed and Burning
TTITLE3=Country Blues (aka Hustling Gamblers)
TTITLE4=Future Blues
TTITLE5=Wasted Mind
TTITLE6=Mr. Blue
TTITLE7=Devil's Side
TTITLE8=I Know You Rider
TTITLE9=Rake and Rambling Blade
EXTD=
EXTT0=
EXTT1=
EXTT2=
EXTT3=
EXTT4=
EXTT5=
EXTT6=
EXTT7=
EXTT8=
EXTT9=
PLAYORDER=
